Coordinates
version=1
nRows=14
nColumns=24
inDegrees=yes

Units are S.I. units (second, meters, Newtons, ...)
Angles are in degrees.

endheader
time	pelvis_tilt	pelvis_list	pelvis_rotation	pelvis_tx	pelvis_ty	pelvis_tz	hip_flexion_r	hip_adduction_r	hip_rotation_r	knee_angle_r	ankle_angle_r	subtalar_angle_r	mtp_angle_r	hip_flexion_l	hip_adduction_l	hip_rotation_l	knee_angle_l	ankle_angle_l	subtalar_angle_l	mtp_angle_l	lumbar_extension	lumbar_bending	lumbar_rotation
      1.06300000	     -3.53344510	     -1.47462155	     -5.76271386	     -0.15555557	      0.88658112	      0.38169561	    -14.60980653	      5.90703409	      1.60132966	     -5.80479566	     17.41296333	     12.46249642	      9.68613274	     28.50585198	     -2.70195014	    -13.82093397	     -3.93250140	     -0.47091126	     -0.74345109	     -1.41032831	     -4.64528102	      1.83585294	     12.33721433
      1.06716667	     -3.62980767	     -1.41358866	     -5.86886630	     -0.14994351	      0.88548655	      0.38168154	    -14.61644978	      5.76343196	      1.54281809	     -6.36458642	     17.58306454	     12.77150534	      9.95376790	     28.66921787	     -2.63797297	    -13.57604736	     -4.30228634	     -0.64376856	     -1.00158047	     -1.37961376	     -4.53529321	      1.69825546	     12.42498684
      1.07133333	     -3.72595990	     -1.34049631	     -5.97724603	     -0.14430491	      0.88445836	      0.38168552	    -14.61384881	      5.60870481	      1.53515773	     -6.94254780	     17.73273859	     12.99975355	     10.22850014	     28.82420939	     -2.56446362	    -13.32040565	     -4.72887275	     -0.84607131	     -1.29520172	     -1.32257115	     -4.41862207	      1.54004945	     12.46908835
      1.07550000	     -3.78377904	     -1.23282038	     -6.06870680	     -0.13859305	      0.88355022	      0.38166934	    -14.64760240	      5.41522611	      1.49605816	     -7.51912971	     17.74855118	     13.15123749	     13.22232029	     28.91489481	     -2.44037648	    -13.04043632	     -5.16601505	     -1.14685534	     -1.68765762	     -0.40464646	     -4.33921512	      1.31876561	     12.44900325
      1.07966667	     -3.87559878	     -1.14963178	     -6.16596507	     -0.13292278	      0.88264775	      0.38166140	    -14.61510326	      5.25381212	      1.51852299	     -8.16383560	     17.83178085	     13.30761988	     13.27076489	     29.08676366	     -2.36033566	    -12.81156168	     -5.76325013	     -1.34215382	     -2.00427594	     -0.37741473	     -4.23297750	      1.14670876	     12.49645169
      1.08383333	     -3.95454809	     -1.03525925	     -6.23702178	     -0.12718007	      0.88183141	      0.38159929	    -14.58048093	      5.05750201	      1.45808583	     -8.83412267	     17.85257256	     13.53877296	     13.37006964	     29.22411457	     -2.22501335	    -12.52797755	     -6.35571180	     -1.67367840	     -2.48713247	     -0.32295585	     -4.11957690	      0.92767153	     12.50319963
      1.08800000	     -3.98378560	     -0.91483661	     -6.27476990	     -0.12138781	      0.88114822	      0.38147627	    -14.60016100	      4.85315574	      1.35569120	     -9.49959206	     17.82314759	     13.79744090	     13.59853142	     29.30710549	     -2.05799891	    -12.20612543	     -6.98346728	     -2.05205301	     -3.08098149	     -0.19479198	     -4.07135067	      0.70996637	     12.48906946
      1.09216667	     -4.03999233	     -0.78961977	     -6.31552197	     -0.11558026	      0.88050110	      0.38136640	    -14.56229901	      4.65007521	      1.29415029	    -10.22043590	     17.74075819	     13.95783582	     13.86902143	     29.42980541	     -1.89538201	    -11.91973237	     -7.67483534	     -2.41303085	     -3.63981421	     -0.05229529	     -3.97976051	      0.47728886	     12.44809339
      1.09633333	     -4.10392476	     -0.63901030	     -6.36564047	     -0.10972207	      0.87992167	      0.38127386	    -14.49174616	      4.41869712	      1.25964717	    -10.98419485	     17.58247381	     14.06066073	     14.09907739	     29.55367558	     -1.71327337	    -11.67445504	     -8.39045842	     -2.73698153	     -4.17381405	      0.06118346	     -3.86298659	      0.19001403	     12.38406404
      1.10050000	     -4.14182365	     -0.49751089	     -6.37302565	     -0.10383287	      0.87944400	      0.38109842	    -14.43441369	      4.20025704	      1.16176186	    -11.77519430	     17.37268797	     14.21904383	     14.40213855	     29.65824636	     -1.51225124	    -11.37488234	     -9.14295066	     -3.09046075	     -4.81333593	      0.20015583	     -3.78454098	     -0.06486123	     12.30854393
      1.10466667	     -4.17086659	     -0.34541160	     -6.36933454	     -0.09789954	      0.87905459	      0.38090468	    -14.36740873	      3.97109261	      1.06226952	    -12.59952293	     17.10633982	     14.34895294	     14.77573214	     29.75185762	     -1.29477850	    -11.08937517	     -9.91623130	     -3.43666507	     -5.45076446	      0.35952658	     -3.70575297	     -0.33913780	     12.20948680
      1.10883333	     -4.13048473	     -0.19767787	     -6.32395671	     -0.09190230	      0.87884166	      0.38064501	    -14.37240275	      3.74297890	      0.89258512	    -13.41081502	     16.62102102	     14.41365976	     19.79555724	     29.76984412	     -1.05811359	    -10.81880165	    -10.70056588	     -3.82012873	     -6.04004913	      2.42003849	     -3.72557343	     -0.60569207	     12.14751765
      1.11300000	     -4.16783438	     -0.05195547	     -6.31263398	     -0.08592878	      0.87858257	      0.38045277	    -14.24230650	      3.52882881	      0.85405444	    -14.33603528	     16.27249289	     14.44363282	     19.85657775	     29.89826138	     -0.85890918	    -10.61845491	    -11.58233007	     -4.01024019	     -6.57053384	      2.44552392	     -3.62908169	     -0.88134560	     12.00912761
      1.11716667	     -4.17884876	      0.09860555	     -6.26386262	     -0.07989709	      0.87843995	      0.38017730	    -14.11694150	      3.30634489	      0.72856224	    -15.29755978	     15.80253674	     14.52442048	     19.97413713	     29.98016233	     -0.62437648	    -10.35647821	    -12.43481784	     -4.20978891	     -7.13354947	      2.47718147	     -3.56178046	     -1.16021585	     11.87549492
